<?xml version="1.0" encoding="UTF-8"?>
<svg width="14px" height="14px" viewBox="0 0 14 14" version="1.1" xmlns="http://www.w3.org/2000/svg" xmlns:xlink="http://www.w3.org/1999/xlink">
    <!-- Generator: Sketch 51.2 (57519) - http://www.bohemiancoding.com/sketch -->
    <title>删除</title>
    <desc>Created with Sketch.</desc>
    <defs></defs>
    <g id="删除" stroke="none" stroke-width="1" fill="none" fill-rule="evenodd">
        <g id="删-除-(1)" transform="translate(1.000000, 0.000000)" fill="#475669" fill-rule="nonzero">
            <path d="M6.09363745,3.29050587e-16 C4.78271308,3.29050587e-16 3.71874463,1.05208334 3.67346938,2.37291667 L0.61738981,2.37291667 C0.27782541,2.37291667 0,2.65208334 0,2.99791666 C0,3.34166667 0.275767454,3.62291666 0.61738981,3.62291666 L1.29857657,3.62291666 L1.29857657,10.6145833 C1.29857657,11.9270833 2.17732806,13 3.26393415,13 L8.79986281,13 C9.88441091,13 10.7652204,11.9333333 10.7652204,10.6145833 L10.7652204,3.62708334 L11.3826102,3.62708334 C11.7221746,3.62708334 12,3.34791667 12,3.00208333 C12,2.65833332 11.7242325,2.37708333 11.3826102,2.37708333 L8.50968959,2.37708333 C8.47058824,1.05208332 7.40456181,1.32313685e-10 6.09363745,3.29050587e-16 Z M4.8300463,2.37291667 C4.87532155,1.69583334 5.42068256,1.17083334 6.09569542,1.17083332 C6.77070828,1.1708333 7.31606929,1.69791666 7.35517064,2.37291667 L4.8300463,2.37291667 Z M3.26187618,11.83125 C2.87703653,11.83125 2.45309553,11.33125 2.45309553,10.6145833 L2.45309553,3.62708334 L9.60658549,3.62708334 L9.60658549,10.6208333 C9.60658549,11.3354167 9.18264449,11.8375 8.79780484,11.8375 L3.26187618,11.8375 L3.26187618,11.83125 Z" id="Shape"></path>
            <path d="M3.63640221,11 C3.98515063,11 4.27280442,10.6547669 4.27280442,10.2213356 L4.27280442,5.77866443 C4.27280442,5.3452331 3.98769624,5 3.63640221,5 C3.28765379,5 3,5.3452331 3,5.77866443 L3,10.2213356 C3,10.652247 3.28001697,11 3.63640221,11 Z M5.94017819,11 C6.2889266,11 6.5765804,10.6547669 6.5765804,10.2213356 L6.5765804,5.77866443 C6.5765804,5.3452331 6.29147222,5 5.94017819,5 C5.59142977,5 5.30377598,5.3452331 5.303776,5.77866443 L5.303776,10.2213356 C5.303776,10.652247 5.59142979,11 5.94017819,11 Z M8.36359781,11 C8.71234623,11 9.00000002,10.6547669 9,10.2213356 L9,5.77866443 C9,5.3452331 8.71489182,5 8.36359781,5 C8.01484939,5 7.7271956,5.3452331 7.7271956,5.77866443 L7.7271956,10.2213356 C7.7271956,10.652247 8.00466697,11 8.36359781,11 Z" id="Shape"></path>
        </g>
    </g>
</svg>