<?xml version="1.0" encoding="UTF-8"?>
<svg width="14px" height="14px" viewBox="0 0 14 14" version="1.1" xmlns="http://www.w3.org/2000/svg" xmlns:xlink="http://www.w3.org/1999/xlink">
    <!-- Generator: Sketch 51.2 (57519) - http://www.bohemiancoding.com/sketch -->
    <title>已置顶</title>
    <desc>Created with Sketch.</desc>
    <defs></defs>
    <g id="已置顶" stroke="none" stroke-width="1" fill="none" fill-rule="evenodd">
        <path d="M9.03414675,9.00537287 L9.03414675,12 C9.03414675,12.5522847 8.5864315,13 8.03414675,13 L4.96586013,13 C4.41357538,13 3.96586013,12.5522847 3.96586013,12 L3.96586013,9.00537287 L1.40243612,9.00537287 C1.18152222,9.00537287 1.00243612,8.82628677 1.00243612,8.60537287 C1.00243612,8.50079126 1.04339481,8.40036884 1.11653746,8.32561948 L6.21410113,3.11607915 C6.36860467,2.95818168 6.62185571,2.95543036 6.77975318,3.10993389 C6.78182379,3.11196 6.78387233,3.11400854 6.78589844,3.11607915 L11.8834621,8.32561948 C12.0379656,8.48351695 12.0352143,8.73676799 11.8773168,8.89127153 C11.8025675,8.96441418 11.7021451,9.00537287 11.5975635,9.00537287 L9.03414675,9.00537287 Z M2.5,1 L10.5,1 C10.7761424,1 11,1.22385763 11,1.5 C11,1.77614237 10.7761424,2 10.5,2 L2.5,2 C2.22385763,2 2,1.77614237 2,1.5 C2,1.22385763 2.22385763,1 2.5,1 Z" id="Combined-Shape" fill="#FF5A5F"></path>
    </g>
</svg>