<?xml version="1.0" encoding="UTF-8"?>
<svg width="14px" height="14px" viewBox="0 0 14 14" version="1.1" xmlns="http://www.w3.org/2000/svg" xmlns:xlink="http://www.w3.org/1999/xlink">
    <!-- Generator: Sketch 51.2 (57519) - http://www.bohemiancoding.com/sketch -->
    <title>点赞</title>
    <desc>Created with Sketch.</desc>
    <defs></defs>
    <g id="点赞" stroke="none" stroke-width="1" fill="none" fill-rule="evenodd">
        <path d="M12.2018366,6.71622813 C13.2660545,5.62794188 13.2660545,3.89513505 12.2018366,2.80684879 C11.1498305,1.7310504 9.41922106,1.7310504 8.35602737,2.81810919 L7,4.16147037 L6.29621888,3.46426303 L5.63278507,2.80684879 C4.58077894,1.7310504 2.85016947,1.7310504 1.79816335,2.80684879 C0.73394555,3.89513505 0.73394555,5.62794188 1.79318044,6.71116859 L6.99997337,11.9606756 L12.2018366,6.71622813 Z M7,2.75384615 L7.65224626,2.10769231 C9.09650582,0.630769231 11.4725458,0.630769231 12.9168053,2.10769231 C14.3610649,3.58461538 14.3610649,5.93846154 12.9168053,7.41538462 L7.65224626,12.7230769 C7.46589018,12.9076923 7.23294509,13 7,13 C6.76705491,13 6.53410982,12.9076923 6.34775374,12.7230769 L1.08319468,7.41538462 C-0.361064892,5.93846154 -0.361064892,3.58461538 1.08319468,2.10769231 C2.52745424,0.630769231 4.90349418,0.630769231 6.34775374,2.10769231 L7,2.75384615 Z" id="Shape" fill="#475669" fill-rule="nonzero"></path>
    </g>
</svg>