<?xml version="1.0" encoding="UTF-8"?>
<svg width="14px" height="14px" viewBox="0 0 14 14" version="1.1" xmlns="http://www.w3.org/2000/svg" xmlns:xlink="http://www.w3.org/1999/xlink">
    <!-- Generator: Sketch 51.2 (57519) - http://www.bohemiancoding.com/sketch -->
    <title>置顶</title>
    <desc>Created with Sketch.</desc>
    <defs></defs>
    <g id="置顶" stroke="none" stroke-width="1" fill="none" fill-rule="evenodd">
        <path d="M2.82899771,8.00537287 L4.96586013,8.00537287 L4.96586013,12 L8.03414675,12 L8.03414675,8.00537287 L10.1710019,8.00537287 L6.49999979,4.25373099 L2.82899771,8.00537287 Z M9.03414675,9.00537287 L9.03414675,12 C9.03414675,12.5522847 8.5864315,13 8.03414675,13 L4.96586013,13 C4.41357538,13 3.96586013,12.5522847 3.96586013,12 L3.96586013,9.00537287 L1.40243612,9.00537287 C1.18152222,9.00537287 1.00243612,8.82628677 1.00243612,8.60537287 C1.00243612,8.50079126 1.04339481,8.40036884 1.11653746,8.32561948 L6.21410113,3.11607915 C6.36860467,2.95818168 6.62185571,2.95543036 6.77975318,3.10993389 C6.78113359,3.11128463 8.4823699,4.84984649 11.8834621,8.32561948 C12.0379656,8.48351695 12.0352143,8.73676799 11.8773168,8.89127153 C11.8025675,8.96441418 11.7021451,9.00537287 11.5975635,9.00537287 L9.03414675,9.00537287 Z" id="Combined-Shape" fill="#475669" fill-rule="nonzero"></path>
        <rect id="Rectangle-20" stroke="#475669" fill="#D8D8D8" x="2.5" y="1.5" width="8" height="1" rx="0.5"></rect>
    </g>
</svg>